<svg width="25" height="20" viewBox="0 0 25 20" fill="none" xmlns="http://www.w3.org/2000/svg">
<path d="M12.5 0C9.4796 0 7.03125 2.20352 7.03125 4.92188C7.03125 7.11953 10.6055 11.125 11.9748 12.5789C12.2522 12.8734 12.7483 12.8734 13.0252 12.5789C14.3945 11.125 17.9688 7.11953 17.9688 4.92188C17.9688 2.20352 15.5204 0 12.5 0ZM12.5 6.5625C11.4931 6.5625 10.6771 5.82812 10.6771 4.92188C10.6771 4.01562 11.4931 3.28125 12.5 3.28125C13.5069 3.28125 14.3229 4.01562 14.3229 4.92188C14.3229 5.82812 13.5069 6.5625 12.5 6.5625ZM0.873264 8.43555C0.615529 8.52833 0.394588 8.68847 0.238936 8.89533C0.083285 9.10218 6.17278e-05 9.34627 0 9.59609L0 19.3742C0 19.8164 0.496094 20.1187 0.952257 19.9547L6.94444 17.5V8.39531C6.56076 7.77109 6.24696 7.16328 6.02214 6.58203L0.873264 8.43555ZM12.5 14.0496C11.8893 14.0496 11.3116 13.8082 10.9154 13.3871C10.0621 12.4809 9.15451 11.4488 8.33333 10.3902V17.4996L16.6667 19.9996V10.3906C15.8455 11.4488 14.9384 12.4812 14.0846 13.3875C13.6884 13.8082 13.1107 14.0496 12.5 14.0496ZM24.0477 6.29531L18.0556 8.75V20L24.1267 17.8145C24.3845 17.7217 24.6055 17.5616 24.7611 17.3547C24.9168 17.1479 25 16.9037 25 16.6539V6.87578C25 6.43359 24.5039 6.13125 24.0477 6.29531Z" fill="#B21B1D"/>
</svg>
