<svg width="25" height="20" viewBox="0 0 25 20" fill="none" xmlns="http://www.w3.org/2000/svg">
<path d="M20.625 13.125C18.7266 13.125 17.1875 14.6641 17.1875 16.5625C17.1875 18.4609 18.7266 20 20.625 20C22.5234 20 24.0625 18.4609 24.0625 16.5625C24.0625 14.6641 22.5234 13.125 20.625 13.125ZM20.625 17.5C20.1082 17.5 19.6875 17.0793 19.6875 16.5625C19.6875 16.0457 20.1082 15.625 20.625 15.625C21.1418 15.625 21.5625 16.0457 21.5625 16.5625C21.5625 17.0793 21.1418 17.5 20.625 17.5ZM23.75 6.25H21.25V4.67969C21.25 4.12813 21.4336 3.59531 21.7637 3.1625C21.9363 2.93594 21.9023 2.61328 21.7121 2.40117L20.8672 1.45703C20.607 1.16602 20.1516 1.18672 19.9023 1.4875C19.1633 2.37891 18.75 3.5082 18.75 4.67969V6.25H14.7527L12.5617 1.13828C12.4178 0.800325 12.1776 0.512192 11.8711 0.309783C11.5645 0.107374 11.2052 -0.000361298 10.8379 9.10316e-07H5.625C4.59102 9.10316e-07 3.75 0.841017 3.75 1.875V7.59844C3.41289 7.33555 2.93125 7.3461 2.62148 7.65586L1.40625 8.8711C1.0707 9.20664 1.0707 9.75078 1.40625 10.0863L1.60391 10.284C1.40898 10.6457 1.25391 11.0191 1.13867 11.4059H0.859375C0.384766 11.4059 0 11.7906 0 12.2652V13.984C0 14.4586 0.384766 14.8434 0.859375 14.8434H1.13828C1.25391 15.2305 1.40859 15.6035 1.60352 15.9656L1.40586 16.1633C1.07031 16.4988 1.07031 17.043 1.40586 17.3785L2.62109 18.5938C2.95664 18.9293 3.50078 18.9293 3.83633 18.5938L4.03398 18.3961C4.3957 18.591 4.76914 18.7461 5.15586 18.8613V19.1406C5.15586 19.6152 5.54063 20 6.01523 20H7.73398C8.20859 20 8.59336 19.6152 8.59336 19.1406V18.8617C8.98008 18.7465 9.35352 18.5914 9.71523 18.3965L9.91289 18.5941C10.2484 18.9297 10.7926 18.9297 11.1281 18.5941L12.3434 17.3789C12.6789 17.0434 12.6789 16.4992 12.3434 16.1637L12.1457 15.966C12.3406 15.6043 12.4957 15.2309 12.6109 14.8441H12.8906C13.3652 14.8441 13.75 14.4594 13.75 13.9848V13.7504H16.8961C17.752 12.618 19.0961 11.8754 20.625 11.8754C21.3531 11.8754 22.034 12.0555 22.6484 12.352L24.6336 10.3668C24.868 10.1324 24.9996 9.81445 24.9996 9.48281V7.5C25 6.80977 24.4402 6.25 23.75 6.25ZM6.875 16.25C5.14922 16.25 3.75 14.8508 3.75 13.125C3.75 11.3992 5.14922 10 6.875 10C8.60078 10 10 11.3992 10 13.125C10 14.8508 8.60078 16.25 6.875 16.25ZM7.73438 6.25H6.25V2.5H10.4254L12.0328 6.25H7.73438Z" fill="gray"/>
</svg>
