<svg width="25" height="23" viewBox="0 0 25 23" fill="none" xmlns="http://www.w3.org/2000/svg">
<path d="M12.5 0C9.4796 0 7.03125 2.48436 7.03125 5.54917C7.03125 8.02692 10.6055 12.5429 11.9748 14.1821C12.2522 14.5142 12.7483 14.5142 13.0252 14.1821C14.3945 12.5429 17.9688 8.02692 17.9688 5.54917C17.9688 2.48436 15.5204 0 12.5 0ZM12.5 7.3989C11.4931 7.3989 10.6771 6.57093 10.6771 5.54917C10.6771 4.52742 11.4931 3.69945 12.5 3.69945C13.5069 3.69945 14.3229 4.52742 14.3229 5.54917C14.3229 6.57093 13.5069 7.3989 12.5 7.3989ZM0.873264 9.51066C0.615529 9.61527 0.394588 9.79582 0.238936 10.029C0.083285 10.2623 6.17278e-05 10.5375 0 10.8191L0 21.8435C0 22.342 0.496094 22.6829 0.952257 22.4979L6.94444 19.7304V9.4653C6.56076 8.76153 6.24696 8.07625 6.02214 7.42092L0.873264 9.51066ZM12.5 15.8402C11.8893 15.8402 11.3116 15.5681 10.9154 15.0933C10.0621 14.0716 9.15451 12.908 8.33333 11.7145V19.7299L16.6667 22.5486V11.7149C15.8455 12.908 14.9384 14.072 14.0846 15.0938C13.6884 15.5681 13.1107 15.8402 12.5 15.8402ZM24.0477 7.09766L18.0556 9.8652V22.549L24.1267 20.0849C24.3845 19.9804 24.6055 19.7998 24.7611 19.5666C24.9168 19.3334 25 19.0581 25 18.7765V7.75211C25 7.25356 24.5039 6.91268 24.0477 7.09766Z" fill="black"/>
</svg>
