<svg width="10" height="10" viewBox="0 0 10 10" fill="none" xmlns="http://www.w3.org/2000/svg">
<path d="M8.57143 7.14286C8.56362 7.14286 8.55647 7.14509 8.54866 7.14509L7.67366 5.68705C7.78683 5.48237 7.85714 5.25045 7.85714 5C7.85714 4.74955 7.78705 4.51763 7.67366 4.31295L8.54866 2.85491C8.55647 2.85513 8.56362 2.85714 8.57143 2.85714C9.36049 2.85714 10 2.21763 10 1.42857C10 0.639509 9.36049 0 8.57143 0C8.04397 0 7.58839 0.289063 7.34107 0.714286H2.65893C2.41161 0.289063 1.95603 0 1.42857 0C0.639509 0 0 0.639509 0 1.42857C0 1.95603 0.289063 2.41161 0.714286 2.65893V7.34085C0.289063 7.58839 0 8.04397 0 8.57143C0 9.36049 0.639509 10 1.42857 10C1.95603 10 2.41161 9.71094 2.65893 9.28571H7.34085C7.58839 9.71094 8.04375 10 8.57121 10C9.36027 10 9.99978 9.36049 9.99978 8.57143C10 7.78237 9.36049 7.14286 8.57143 7.14286ZM2.14286 7.34107V2.65893C2.35677 2.53463 2.53463 2.35677 2.65893 2.14286H7.30982L6.45134 3.57366C6.44353 3.57344 6.43638 3.57143 6.42857 3.57143C5.63951 3.57143 5 4.21094 5 5C5 5.78906 5.63951 6.42857 6.42857 6.42857C6.43638 6.42857 6.44353 6.42634 6.45134 6.42634L7.30982 7.85714H2.65893C2.5347 7.64318 2.35682 7.4653 2.14286 7.34107ZM6.07143 5C6.07143 4.80312 6.2317 4.64286 6.42857 4.64286C6.62545 4.64286 6.78571 4.80312 6.78571 5C6.78571 5.19688 6.62545 5.35714 6.42857 5.35714C6.2317 5.35714 6.07143 5.19688 6.07143 5ZM8.92857 1.42857C8.92857 1.62545 8.7683 1.78571 8.57143 1.78571C8.37455 1.78571 8.21429 1.62545 8.21429 1.42857C8.21429 1.2317 8.37455 1.07143 8.57143 1.07143C8.7683 1.07143 8.92857 1.2317 8.92857 1.42857ZM1.42857 1.07143C1.62545 1.07143 1.78571 1.2317 1.78571 1.42857C1.78571 1.62545 1.62545 1.78571 1.42857 1.78571C1.2317 1.78571 1.07143 1.62545 1.07143 1.42857C1.07143 1.2317 1.2317 1.07143 1.42857 1.07143ZM1.07143 8.57143C1.07143 8.37455 1.2317 8.21429 1.42857 8.21429C1.62545 8.21429 1.78571 8.37455 1.78571 8.57143C1.78571 8.7683 1.62545 8.92857 1.42857 8.92857C1.2317 8.92857 1.07143 8.7683 1.07143 8.57143ZM8.57143 8.92857C8.37455 8.92857 8.21429 8.7683 8.21429 8.57143C8.21429 8.37455 8.37455 8.21429 8.57143 8.21429C8.7683 8.21429 8.92857 8.37455 8.92857 8.57143C8.92857 8.7683 8.7683 8.92857 8.57143 8.92857Z" fill="#838383"/>
</svg>
