<svg width="56" height="55" viewBox="0 0 56 55" fill="none" xmlns="http://www.w3.org/2000/svg">
<path fill-rule="evenodd" clip-rule="evenodd" d="M8.87906 21.0201C6.21688 23.673 3.29 23.4939 0 19.1087C3.26812 16.9116 7.17828 16.6996 8.87906 21.0201ZM33.4031 38.2062L34.3798 37.1926L31.5317 34.2438C31.4179 34.1264 31.3427 33.9747 31.317 33.8104C31.2913 33.6461 31.3163 33.4776 31.3884 33.3289C32.6484 30.7429 33.4862 28.353 33.9325 26.1445C34.3744 23.9633 34.4356 21.9589 34.1491 20.1188C33.6153 16.6984 32.13 13.99 30.0628 11.9901C28.2144 10.2034 25.8923 8.97441 23.3592 8.30325C20.8042 7.62642 18.0414 7.51532 15.3366 7.9688C11.2492 8.65357 7.29094 10.6228 4.37063 13.8687C3.79969 14.5047 2.80109 13.8449 3.10297 13.0433C4.47672 9.41543 6.88953 6.43828 9.87109 4.24908C13.0189 1.93403 16.8055 0.502144 20.6675 0.113279C22.6177 -0.0828536 24.4902 -0.0204992 26.2555 0.270866C30.415 0.959032 33.9806 2.92036 36.61 5.79547C39.2416 8.67284 40.9325 12.4606 41.3383 16.7948C41.5067 18.5985 41.4531 20.4986 41.1502 22.4656C40.9041 24.0653 40.4939 25.6888 39.9131 27.31C39.4198 28.6954 38.7953 30.0853 38.0384 31.4639L38.9703 32.4355L39.7972 31.5773C40.0225 31.3449 40.3156 31.2293 40.6077 31.2293C40.8964 31.2293 41.1884 31.346 41.4105 31.5739L44.9619 35.2528L36.948 43.5596L33.4031 39.8863C33.1885 39.6633 33.0677 39.3613 33.0673 39.0462C33.0673 38.7424 33.1789 38.4386 33.4031 38.2062ZM46.4012 36.7448L54.3452 44.9767L54.402 45.0413C55.4673 46.1785 56 47.6557 56 49.1307C56 50.6328 55.4477 52.1373 54.3452 53.2812V53.2846C53.2416 54.4285 51.7891 54.9999 50.3377 54.9999V54.9965C48.8862 54.9954 47.4338 54.4251 46.3345 53.2846L38.3873 45.0504L46.4012 36.7448ZM35.4572 36.077L37.893 33.5523L36.5477 32.1464C36.4286 32.0219 36.3529 31.8599 36.3323 31.6859C36.3117 31.5119 36.3474 31.3357 36.4339 31.1851C37.2695 29.7328 37.9509 28.2499 38.4847 26.7602C39.0316 25.241 39.4166 23.7195 39.6473 22.2185C39.9295 20.3853 39.9798 18.6178 39.8234 16.9422C39.4516 12.973 37.9083 9.50952 35.5064 6.88384C33.1023 4.25588 29.8342 2.46007 26.017 1.82859C24.3764 1.55763 22.6319 1.50095 20.8108 1.68348C17.2123 2.04513 13.685 3.37952 10.7527 5.53358C9.08797 6.75346 7.61797 8.23863 6.43781 9.95961C9.04094 8.10712 12.0378 6.92352 15.0981 6.41108C18.0119 5.92244 20.9869 6.04148 23.7344 6.77046C26.5059 7.50398 29.0566 8.85877 31.0997 10.8348C33.4053 13.0637 35.0602 16.076 35.6519 19.8717C35.968 21.901 35.9034 24.0937 35.4244 26.4654C34.9792 28.6614 34.1786 31.0116 32.9941 33.5273L35.4572 36.077ZM19.1625 24.2716C18.7141 27.8497 17.6498 29.336 12.2019 29.0083C13.8622 25.6015 14.6606 22.6561 19.1625 24.2716ZM6.895 27.4166C8.27312 24.5778 9.05078 21.4566 13.3777 23.0076C12.8384 27.2919 10.7778 27.6524 6.895 27.4166ZM20.9705 15.5976C21.1663 19.4409 20.557 23.2899 26.0783 23.7524C27.4936 18.7368 25.3805 17.2948 20.9705 15.5976ZM15.0183 15.1044C15.1966 18.5158 14.6552 21.9328 19.553 22.3421C20.8097 17.8922 18.9295 16.6123 15.0183 15.1044ZM13.7659 21.0882C14.6759 17.8616 14.3084 16.1826 9.54187 14.3494C9.72234 17.899 9.34391 20.7208 13.7659 21.0882ZM25.6834 25.7013C25.177 29.735 23.9794 31.4107 17.8423 31.0377C19.7094 27.1966 20.6095 23.8817 25.6834 25.7013ZM28.2275 24.2433C27.7178 24.1333 27.2223 24.4734 27.1162 24.9961C27.0653 25.2487 27.1132 25.5118 27.2494 25.7278C27.3856 25.9438 27.5989 26.0949 27.8425 26.148L30.1777 26.657L30.5638 24.7523L28.2275 24.2433Z" fill="#B21B1D"/>
</svg>
