<svg width="980" height="997" viewBox="0 0 980 997" fill="none" xmlns="http://www.w3.org/2000/svg">
<path d="M244.24 15.6901C241.96 31.1301 242.22 31.89 252.85 53.4C264.74 77.7 265.76 82 259.68 84.28C254.37 86.31 256.39 88.84 242.47 61.25C231.33 38.47 230.32 37.46 215.64 30.12C207.29 25.82 200.45 23.29 200.45 24.3C200.45 25.57 199.44 32.9 197.92 41C195.64 55.68 195.64 56.19 207.03 78.96C217.91 100.47 218.42 102.25 214.12 105.28C211.59 107.05 208.05 108.57 206.27 108.57C204.5 108.57 197.92 98.1901 191.59 85.7901C180.71 64.0201 179.44 62.5 166.03 55.92C150.09 48.07 148.82 48.83 146.29 68.32C144.77 79.46 145.78 82.75 156.41 103.75C165.52 121.97 167.29 127.54 164.51 129.06C156.92 134.12 153.37 130.83 143.76 109.57C134.14 88.56 133.38 87.8 118.7 80.21C101.49 71.61 100.73 72.1101 98.2 91.0901C96.68 101.97 97.69 105.77 106.8 125.26C118.19 149.81 118.44 150.57 112.87 152.59C105.78 155.37 105.02 154.36 95.15 132.34C85.53 111.33 84.77 110.32 70.35 102.98C62.25 98.93 55.16 96.15 54.66 96.65C54.15 97.16 52.38 104.24 50.86 112.6C48.08 127.28 48.08 127.53 58.96 149.81C68.32 168.54 69.34 172.34 66.3 174.36C59.21 178.92 57.44 176.89 46.56 155.38C36.44 135.13 35.17 133.61 21 126.53L6.07 118.94L3.03 134.88L0 150.85L10.38 171.35C16.2 182.74 20.76 192.86 20.76 194.13C20.76 195.4 16.71 198.18 11.9 200.46C4.56 204 3.04 206.03 3.04 212.36C3.04 238.18 31.89 266.02 67.58 274.88C92.13 280.95 107.57 277.66 152.11 256.91C172.1 247.54 188.56 240.21 188.81 240.71C189.32 241.22 264.99 403.2 357.37 600.87C449.5 798.53 527.71 965.57 531 972.15L537.07 984.05L554.03 976.2C563.65 972.15 571.49 968.35 572 968.1C572.25 967.6 508.72 830.92 430.52 663.88C228.55 232.09 225.76 226.02 225.76 223.99C225.76 223.23 242.21 214.62 262.21 205.01C304.22 185.02 318.15 173.63 329.53 150.59C343.45 122.24 342.94 93.64 328.01 69.6L319.15 55.43L311.56 59.48C307.51 61.5 303.21 62.52 301.94 62.01C300.67 61.25 294.85 50.37 289.03 38.22C278.65 16.2 278.15 15.69 262.45 7.85003L246.76 3.41646e-05L244.24 15.6901Z" fill="#808080"/>
<path d="M487.22 88.5899C468.24 94.1599 459.38 110.36 444.45 169.08C439.64 187.56 435.09 204.01 434.33 205.02C433.57 206.29 430.28 207.3 427.24 207.3C423.95 207.3 407.25 209.58 390.03 212.61C336.12 221.72 297.14 236.65 281.96 253.86C250.83 289.55 293.6 323.21 391.3 340.17C403.7 342.19 414.33 344.47 415.09 344.98C415.6 345.74 411.8 350.04 406.49 354.6C393.08 366.24 385.23 384.47 385.23 403.7C385.23 430.02 395.1 449 415.6 462.42C425.47 468.75 427.75 472.29 431.8 484.44C439.14 507.98 457.36 549.74 468.5 568.98C491.53 608.46 516.34 631.24 545.44 640.35C560.37 644.91 567.21 645.66 596.06 644.65C625.93 643.89 630.99 642.88 644.4 636.81C681.6 619.6 722.1 559.87 744.88 488.75C750.2 472.05 751.71 469.77 762.6 462.68C799.05 439.4 803.6 382.95 771.46 354.61C766.15 350.05 762.35 345.75 762.86 344.99C763.62 344.48 774.25 342.21 786.65 340.18C857.77 327.78 900.8 306.52 905.61 281.46C911.69 249.32 863.85 224.01 773.24 210.85C756.79 208.32 742.62 205.79 741.6 205.03C740.59 204.27 735.78 189.59 730.72 172.38C717.31 126.32 711.99 113.41 701.87 103.28C686.68 87.8399 676.56 86.3199 637.33 92.8999C595.32 99.9899 576.59 99.9899 537.1 92.1399C502.91 85.2899 499.37 85.0399 487.22 88.5899ZM562.39 353.07C616.3 354.08 660.09 353.58 682.36 351.8C706.91 350.03 718.55 349.77 720.83 351.8C722.6 353.07 724.63 358.89 725.64 364.2C726.91 372.3 728.93 374.83 736.52 378.63C749.93 385.21 756.52 399.13 752.47 412.55C748.67 424.7 740.83 432.54 731.72 432.54C728.18 432.54 723.87 434.06 722.61 435.58C721.09 437.35 715.27 453.04 709.45 470.51C687.43 536.06 657.06 585.42 629.47 599.34C618.08 605.41 614.03 605.92 587.71 605.92C552.78 605.92 545.19 602.88 524.18 579.85C501.4 555.05 484.95 522.9 464.96 464.18C459.64 448.74 454.08 435.58 452.56 434.57C451.04 433.56 447.24 432.55 444.21 432.55C428.27 432.55 417.89 407.24 426.75 390.03C429.03 385.47 431.81 381.93 433.08 381.93C434.09 381.93 441.18 374.34 448.52 365.22C460.92 349.78 462.69 348.77 469.78 350.03C474.06 351.05 515.82 352.31 562.39 353.07Z" fill="#808080"/>
<path d="M471.27 648.19C459.37 650.97 449.5 653.5 449 654.01C448.75 654.26 482.66 727.15 524.42 816.25L600.35 977.98L580.61 987.34L561.12 996.71H770.69L980 996.96V972.15C979.75 892.42 955.45 827.38 903.06 766.13C853.45 707.92 774.99 663.12 693.49 646.16L671.47 641.6L651.73 660.58C624.4 686.65 613.01 691.97 583.9 691.97C564.66 691.97 559.1 690.96 548.97 685.89C535.55 678.8 516.07 660.83 510.24 649.69C505.69 641.1 501.39 640.85 471.27 648.19Z" fill="#808080"/>
<path d="M352.31 697.04C325.23 714 304.98 730.7 278.4 758.8C252.08 786.64 232.59 816.25 218.16 849.41C202.22 886.62 197.66 909.14 196.14 955.71L194.62 996.97H356.86H519.1L503.41 963.31C494.55 945.09 461.9 874.98 430.52 807.91C399.39 740.84 373.32 685.67 372.56 685.67C371.8 685.67 362.69 690.71 352.31 697.04Z" fill="#808080"/>
</svg>
