<svg width="30" height="24" viewBox="0 0 30 24" fill="none" xmlns="http://www.w3.org/2000/svg">
<path d="M0.859152 16.9286H18.4266C18.5394 16.9286 18.6512 16.9116 18.7554 16.8786C18.8597 16.8455 18.9545 16.797 19.0343 16.7358C19.1141 16.6746 19.1773 16.602 19.2205 16.522C19.2636 16.4421 19.2858 16.3564 19.2857 16.2699V14.3015C19.2858 14.215 19.2636 14.1293 19.2205 14.0494C19.1773 13.9694 19.1141 13.8968 19.0343 13.8356C18.9545 13.7745 18.8597 13.7259 18.7554 13.6929C18.6512 13.6598 18.5394 13.6428 18.4266 13.6429H0.859152C0.746302 13.6428 0.634542 13.6598 0.530265 13.6929C0.425988 13.7259 0.331241 13.7745 0.251444 13.8356C0.171646 13.8968 0.108365 13.9694 0.0652199 14.0494C0.0220747 14.1293 -8.77996e-05 14.215 2.61399e-07 14.3015V16.2699C-8.77996e-05 16.3564 0.0220747 16.4421 0.0652199 16.522C0.108365 16.602 0.171646 16.6746 0.251444 16.7358C0.331241 16.797 0.425988 16.8455 0.530265 16.8786C0.634542 16.9116 0.746302 16.9286 0.859152 16.9286ZM0.859152 3.78571H18.4266C18.5394 3.78578 18.6512 3.76879 18.7554 3.73571C18.8597 3.70263 18.9545 3.65412 19.0343 3.59294C19.1141 3.53176 19.1773 3.45912 19.2205 3.37918C19.2636 3.29923 19.2858 3.21355 19.2857 3.12703V1.15868C19.2858 1.07216 19.2636 0.986482 19.2205 0.906536C19.1773 0.826591 19.1141 0.753951 19.0343 0.692773C18.9545 0.631596 18.8597 0.58308 18.7554 0.550002C18.6512 0.516924 18.5394 0.499933 18.4266 0.5H0.859152C0.746302 0.499933 0.634542 0.516924 0.530265 0.550002C0.425988 0.58308 0.331241 0.631596 0.251444 0.692773C0.171646 0.753951 0.108365 0.826591 0.0652199 0.906536C0.0220747 0.986482 -8.77996e-05 1.07216 2.61399e-07 1.15868V3.12703C-8.77996e-05 3.21355 0.0220747 3.29923 0.0652199 3.37918C0.108365 3.45912 0.171646 3.53176 0.251444 3.59294C0.331241 3.65412 0.425988 3.70263 0.530265 3.73571C0.634542 3.76879 0.746302 3.78578 0.859152 3.78571ZM28.9286 7.07143H1.07143C0.787268 7.07143 0.514746 7.15797 0.313814 7.31202C0.112883 7.46607 2.61399e-07 7.675 2.61399e-07 7.89286V9.53571C2.61399e-07 9.75357 0.112883 9.9625 0.313814 10.1166C0.514746 10.2706 0.787268 10.3571 1.07143 10.3571H28.9286C29.2127 10.3571 29.4853 10.2706 29.6862 10.1166C29.8871 9.9625 30 9.75357 30 9.53571V7.89286C30 7.675 29.8871 7.46607 29.6862 7.31202C29.4853 7.15797 29.2127 7.07143 28.9286 7.07143ZM28.9286 20.2143H1.07143C0.787268 20.2143 0.514746 20.3008 0.313814 20.4549C0.112883 20.6089 2.61399e-07 20.8179 2.61399e-07 21.0357V22.6786C2.61399e-07 22.8964 0.112883 23.1054 0.313814 23.2594C0.514746 23.4135 0.787268 23.5 1.07143 23.5H28.9286C29.2127 23.5 29.4853 23.4135 29.6862 23.2594C29.8871 23.1054 30 22.8964 30 22.6786V21.0357C30 20.8179 29.8871 20.6089 29.6862 20.4549C29.4853 20.3008 29.2127 20.2143 28.9286 20.2143Z" fill="black"/>
</svg>
